<?xml version="1.0" encoding="utf-8"?>
<!-- Generator: Adobe Illustrator 16.0.4, SVG Export Plug-In . SVG Version: 6.00 Build 0)  -->
<!DOCTYPE svg PUBLIC "-//W3C//DTD SVG 1.1//EN" "http://www.w3.org/Graphics/SVG/1.1/DTD/svg11.dtd">
<svg version="1.1" id="Layer_1" xmlns="http://www.w3.org/2000/svg" xmlns:xlink="http://www.w3.org/1999/xlink" x="0px" y="0px"
	 viewBox="0 0 72 72" enable-background="new 0 0 72 72" xml:space="preserve">
<g>
	<path fill="#010101" d="M36.338,35.682c0-6.667,4.439-10.606,10.015-10.606c3.833,0,7.132,1.402,9.067,4.925l-4.552,2.386
		c-1.062-2.273-2.883-2.766-3.795-2.766c-3.374,0-4.591,2.615-4.591,6.062c0,3.449,1.443,6.062,4.591,6.062
		c1.823,0,3.266-0.681,4.212-2.956l4.25,2.162c-1.82,3.219-5.122,5.339-8.989,5.339C40.511,46.289,36.338,42.466,36.338,35.682z"/>
	<path fill="#010101" d="M26.786,46.289c3.869,0,7.171-2.12,8.991-5.339l-4.249-2.162c-0.95,2.275-2.391,2.956-4.211,2.956
		c-3.15,0-4.591-2.613-4.591-6.061s1.215-6.062,4.591-6.062c0.909,0,2.73,0.492,3.794,2.766L35.662,30
		c-1.934-3.523-5.235-4.924-9.066-4.924c-5.577,0-10.016,3.94-10.016,10.607C16.581,42.466,20.751,46.289,26.786,46.289z"/>
	<circle fill="none" stroke="#010101" stroke-width="3" stroke-miterlimit="10" cx="36.058" cy="35.682" r="32.344"/>
</g>
</svg>
