<?xml version="1.0" encoding="utf-8"?>
<!-- Generator: Adobe Illustrator 16.0.4, SVG Export Plug-In . SVG Version: 6.00 Build 0)  -->
<!DOCTYPE svg PUBLIC "-//W3C//DTD SVG 1.1//EN" "http://www.w3.org/Graphics/SVG/1.1/DTD/svg11.dtd">
<svg version="1.1" id="Layer_1" xmlns="http://www.w3.org/2000/svg" xmlns:xlink="http://www.w3.org/1999/xlink" x="0px" y="0px"
	 width="576px" height="576px" viewBox="0 0 576 576" enable-background="new 0 0 576 576" xml:space="preserve">
<path fill="#7D8BA4" d="M290.704,285.456c0-53.336,35.512-84.848,80.12-84.848c30.664,0,57.056,11.216,72.536,39.4l-36.416,19.088
	c-8.496-18.184-23.064-22.128-30.36-22.128c-26.992,0-36.728,20.92-36.728,48.496c0,27.593,11.544,48.496,36.728,48.496
	c14.584,0,26.128-5.448,33.696-23.647l34,17.295c-14.561,25.752-40.977,42.713-71.912,42.713
	C324.088,370.312,290.704,339.729,290.704,285.456z"/>
<path fill="#7D8BA4" d="M214.288,370.312c30.952,0,57.368-16.961,71.928-42.713l-33.992-17.295
	c-7.6,18.199-19.128,23.647-33.688,23.647c-25.2,0-36.728-20.904-36.728-48.488s9.72-48.496,36.728-48.496
	c7.272,0,21.84,3.936,30.352,22.128L285.296,240c-15.472-28.184-41.88-39.392-72.528-39.392c-44.616,0-80.128,31.52-80.128,84.856
	C132.648,339.729,166.008,370.312,214.288,370.312z"/>
<circle fill="none" stroke="#7D8BA4" stroke-width="3" stroke-miterlimit="10" cx="288.464" cy="285.456" r="258.752"/>
</svg>
