<?xml version="1.0" encoding="utf-8"?>
<!-- Generator: Adobe Illustrator 16.0.4, SVG Export Plug-In . SVG Version: 6.00 Build 0)  -->
<!DOCTYPE svg PUBLIC "-//W3C//DTD SVG 1.1//EN" "http://www.w3.org/Graphics/SVG/1.1/DTD/svg11.dtd">
<svg version="1.1" id="Layer_1" xmlns="http://www.w3.org/2000/svg" xmlns:xlink="http://www.w3.org/1999/xlink" x="0px" y="0px"
	  viewBox="0 0 72 72" enable-background="new 0 0 72 72" xml:space="preserve">
<g>
	<circle fill="none" stroke="#010101" stroke-width="3" stroke-miterlimit="10" cx="36" cy="35.999" r="32.902"/>
	<g>
		<path d="M47.686,17.222c0.661,1.499,1.089,3.99,0.449,5.814c2.612,2.226,3.508,7.643,2.248,12.07
			c3.72,0.284,8.15-0.135,11.011,1.006c-2.673-0.345-6.326-1.02-9.773-0.783c-0.652,0.044-1.623-0.025-1.576,0.893
			c3.993,0.314,7.96,0.656,11.239,1.679c-3.251-0.532-7.197-1.34-11.239-1.453c-1.666,3.292-5.025,4.91-9.659,5.251
			c0.498,1.083,1.452,1.496,1.686,3.24c0.348,2.606-0.545,6.423,0.334,8.161c0.424,0.832,1.11,0.854,1.575,1.564
			c-1.135,1.345-3.95-0.151-4.27-1.564c-0.552-2.425,0.834-6.183-0.676-7.825c0.107,2.643-0.625,6.356,0.113,8.718
			c0.292,0.929,1.129,1.286,0.898,2.124c-5.276,0.538-3.072-6.83-3.932-11.178c-0.796,0.058-0.446,1.193-0.449,1.678
			c-0.025,4.246,0.868,10.068-3.708,9.5c-0.135-0.893,0.615-1.195,0.898-2.012c0.835-2.388-0.155-5.947,0.226-8.83
			c-1.743,1.317,0.185,5.913-0.898,8.271c-0.623,1.356-2.631,1.946-4.158,1.343c0.199-1.012,1.243-0.849,1.684-1.788
			c0.62-1.314,0.005-3.201,0.226-5.142c-3.232,0.646-5.738-0.093-6.967-2.124c-0.548-0.912-0.684-1.987-1.348-2.794
			c-0.661-0.808-1.716-0.917-2.022-2.012c4.003-0.964,4.158,4.119,7.753,4.246c1.103,0.041,1.675-0.316,2.698-0.559
			c0.283-1.281,0.895-2.238,1.796-2.907c-4.474-0.611-8.169-2.006-9.886-5.362c-4.07,0.199-7.792,0.741-11.238,1.562
			c3.13-1.135,6.99-1.542,11.126-1.678c-0.243-1.463-2.381-1.061-3.709-1.006c-2.463,0.111-5.569,0.417-7.527,0.786
			c2.84-1.014,6.828-0.887,10.674-0.896c-1.177-3.689-0.769-9.552,1.799-11.735c-0.728-1.834-0.501-4.832,0.449-6.26
			c2.866,0.13,4.604,1.378,6.403,2.571c2.234-0.633,4.583-0.951,7.641-0.782c1.287,0.071,2.626,0.649,3.596,0.56
			c0.95-0.091,1.997-1.158,2.921-1.565C45.294,17.476,46.312,17.272,47.686,17.222L47.686,17.222z M47.686,17.222"/>
	</g>
</g>
</svg>
