<?xml version="1.0" encoding="utf-8"?>
<!-- Generator: Adobe Illustrator 16.0.4, SVG Export Plug-In . SVG Version: 6.00 Build 0)  -->
<!DOCTYPE svg PUBLIC "-//W3C//DTD SVG 1.1//EN" "http://www.w3.org/Graphics/SVG/1.1/DTD/svg11.dtd">
<svg version="1.1" id="Layer_1" xmlns="http://www.w3.org/2000/svg" xmlns:xlink="http://www.w3.org/1999/xlink" x="0px" y="0px"
	  viewBox="0 0 72 72" enable-background="new 0 0 72 72" xml:space="preserve">
<g>
	<g>
		<path d="M40.055,48.966c-1.936,2.379-4.896,3.904-8.24,3.904c-5.832,0-10.491-4.77-10.491-10.568c0-3.435,1.858-6.482,4.35-8.411
			v-3.618c-4.217,2.291-7.481,6.773-7.481,11.979c0,7.514,6.108,13.729,13.666,13.729c4.876,0,9.114-2.681,11.523-6.387
			c-0.177-0.404-0.379-0.797-0.575-1.188C41.895,48.62,40.978,48.804,40.055,48.966L40.055,48.966z M40.055,48.966"/>
		<g>
			<defs>
				<rect id="SVGID_1_" x="18.192" y="15.008" width="35.357" height="42.093"/>
			</defs>
			<clipPath id="SVGID_2_">
				<use xlink:href="#SVGID_1_"  overflow="visible"/>
			</clipPath>
			<path clip-path="url(#SVGID_2_)" d="M37.178,19.857c0,2.682-2.183,4.851-4.876,4.851s-4.876-2.169-4.876-4.851
				c0-2.68,2.182-4.85,4.876-4.85S37.178,17.177,37.178,19.857L37.178,19.857z M37.178,19.857"/>
			<path clip-path="url(#SVGID_2_)" d="M53.48,51.883l-5.098-11.788c-0.594-1.38-2.093-2.137-3.56-1.802l-10.265,2.365l-0.006-11.03
				c-0.005-1.726-1.404-3.149-3.123-3.149c-1.728,0-3.118,1.429-3.118,3.155l0.012,14.932c0,0.948,0.436,1.853,1.182,2.439
				c0.74,0.596,1.714,0.823,2.638,0.607l11.547-2.655l4.061,9.396c0.512,1.177,1.657,1.886,2.864,1.886
				c0.411,0,0.835-0.082,1.24-0.261C53.437,55.298,54.163,53.464,53.48,51.883L53.48,51.883z M53.48,51.883"/>
		</g>
	</g>
	<circle fill="none" stroke="#010101" stroke-width="3" stroke-miterlimit="10" cx="36" cy="35.999" r="33.458"/>
</g>
</svg>
