<?xml version="1.0" encoding="utf-8"?>
<!-- Generator: Adobe Illustrator 16.0.4, SVG Export Plug-In . SVG Version: 6.00 Build 0)  -->
<!DOCTYPE svg PUBLIC "-//W3C//DTD SVG 1.1//EN" "http://www.w3.org/Graphics/SVG/1.1/DTD/svg11.dtd">
<svg version="1.1" id="Layer_1" xmlns="http://www.w3.org/2000/svg" xmlns:xlink="http://www.w3.org/1999/xlink" x="0px" y="0px"
	 width="426.949px" height="47.333px" viewBox="0 0 426.949 47.333" enable-background="new 0 0 426.949 47.333"
	 xml:space="preserve">
<g enable-background="new    ">
	<path fill="#FFFFFF" d="M39.1,40.956c0,0-4.608,5.328-14.762,5.328c-13.969,0-22.25-10.225-22.25-22.61
		c0-12.386,8.281-22.538,22.25-22.538c10.153,0,14.762,5.256,14.762,5.256l-5.977,7.993c0,0-2.88-3.24-8.641-3.24
		c-6.769,0-11.593,5.04-11.593,12.529c0,7.489,4.824,12.528,11.593,12.528c5.761,0,8.641-3.24,8.641-3.24L39.1,40.956z"/>
	<path fill="#FFFFFF" d="M47.16,32.458c0,0,6.193,4.178,12.025,4.178c3.24,0,4.752-1.441,4.752-3.602
		c0-2.232-1.368-3.383-7.417-5.184c-9.073-2.664-14.257-6.193-14.257-13.322c0-7.849,5.329-13.393,16.706-13.393
		c11.737,0,16.273,4.608,16.273,4.608l-5.616,8.496c0,0-4.537-3.6-10.657-3.6c-3.528,0-4.68,1.368-4.68,3.168
		c0,2.16,1.872,3.024,6.84,4.465c9.577,2.664,15.049,6.409,15.049,13.608c0,7.85-5.256,14.33-16.633,14.33
		c-11.953,0-18.074-5.76-18.074-5.76L47.16,32.458z"/>
	<path fill="#FFFFFF" d="M85.535,32.458c0,0,6.193,4.178,12.025,4.178c3.24,0,4.752-1.441,4.752-3.602
		c0-2.232-1.368-3.383-7.417-5.184c-9.073-2.664-14.257-6.193-14.257-13.322c0-7.849,5.329-13.393,16.706-13.393
		c11.737,0,16.273,4.608,16.273,4.608l-5.616,8.496c0,0-4.537-3.6-10.657-3.6c-3.528,0-4.68,1.368-4.68,3.168
		c0,2.16,1.872,3.024,6.84,4.465c9.577,2.664,15.049,6.409,15.049,13.608c0,7.85-5.256,14.33-16.633,14.33
		c-11.953,0-18.074-5.76-18.074-5.76L85.535,32.458z"/>
</g>
<g enable-background="new    ">
	<path fill="#FFFFFF" d="M118.87,44.051l30.027-40.54h-29.811v-1.44h31.971v1.225l-30.099,40.539h29.163v1.441H118.87V44.051z"/>
	<path fill="#FFFFFF" d="M180,42.754c0,0-3.96,3.24-10.441,3.24c-8.208,0-14.329-5.904-14.329-15.625
		c0-10.369,6.048-16.057,13.609-16.057c8.137,0,12.889,5.688,12.889,14.545v0.432h-24.986v1.08c0,8.93,5.833,14.258,12.817,14.258
		c6.265,0,9.721-3.096,9.721-3.096L180,42.754z M156.887,27.85h23.33c-0.144-6.193-3.96-12.169-11.377-12.169
		C163.007,15.681,157.75,19.93,156.887,27.85z"/>
	<path fill="#FFFFFF" d="M190.51,15.033h1.08l0.36,6.336h0.072c-0.072,0.288,2.52-7.057,11.521-7.057
		c8.064,0,12.457,6.121,12.457,14.329v16.635h-1.439V28.713c0-7.417-3.673-13.033-11.162-13.033c-8.065,0-11.305,6.769-11.449,10.73
		v18.865h-1.44V15.033z"/>
	<path fill="#FFFFFF" d="M244.079,22.737h20.018v2.087c0,13.467-7.2,21.459-18.505,21.459c-12.746,0-21.17-9.721-21.17-22.466
		c0-12.961,8.424-22.682,21.17-22.682c10.152,0,15.049,5.832,15.049,5.832l-0.864,1.152c0,0-4.753-5.544-14.185-5.544
		c-12.602,0-19.658,9.864-19.658,21.241c0,11.162,7.057,21.027,19.658,21.027c10.08,0,16.849-6.914,16.992-19.01v-1.656h-18.505
		V22.737z"/>
	<path fill="#FFFFFF" d="M297.863,23.098l0.36-8.064h1.08v30.243h-1.08l-0.36-8.064h-0.072c0,0-2.809,8.783-12.889,8.783
		c-7.921,0-14.329-6.408-14.329-15.84c0-9.433,6.408-15.842,14.329-15.842c10.08,0,12.889,8.785,12.889,8.785H297.863z
		 M284.83,15.681c-7.057,0-12.745,5.904-12.745,14.474c0,8.568,5.688,14.473,12.745,14.473c6.912,0,13.105-5.256,13.105-14.473
		C297.936,20.938,291.742,15.681,284.83,15.681z"/>
	<path fill="#FFFFFF" d="M322.558,16.401h-1.009c-6.191,0-9.288,5.04-9.504,10.513v18.361h-1.44V15.033h1.08l0.36,6.336h0.072
		c0,0.216,1.943-6.336,9.432-6.336h1.009V16.401z"/>
	<path fill="#FFFFFF" d="M352.799,23.17V1.712h1.441v43.564h-1.081l-0.36-8.064h-0.071c0,0-2.809,8.783-12.89,8.783
		c-7.92,0-14.329-6.408-14.329-15.84c0-9.433,6.409-15.842,14.329-15.842c10.153,0,12.89,8.857,12.89,8.857H352.799z
		 M339.766,15.681c-7.057,0-12.744,5.904-12.744,14.474c0,8.568,5.688,14.473,12.744,14.473c6.913,0,13.105-5.256,13.105-14.473
		C352.871,20.938,346.679,15.681,339.766,15.681z"/>
	<path fill="#FFFFFF" d="M388.223,42.754c0,0-3.961,3.24-10.441,3.24c-8.209,0-14.329-5.904-14.329-15.625
		c0-10.369,6.048-16.057,13.609-16.057c8.137,0,12.889,5.688,12.889,14.545v0.432h-24.985v1.08c0,8.93,5.832,14.258,12.816,14.258
		c6.265,0,9.721-3.096,9.721-3.096L388.223,42.754z M365.108,27.85h23.33c-0.144-6.193-3.96-12.169-11.377-12.169
		C371.229,15.681,365.973,19.93,365.108,27.85z"/>
	<path fill="#FFFFFF" d="M398.731,15.033h1.08l0.36,6.336h0.072c-0.072,0.288,2.52-7.057,11.521-7.057
		c8.064,0,12.457,6.121,12.457,14.329v16.635h-1.44V28.713c0-7.417-3.672-13.033-11.161-13.033c-8.064,0-11.305,6.769-11.448,10.73
		v18.865h-1.44V15.033z"/>
</g>
</svg>
